<svg width="288" height="288" xmlns="http://www.w3.org/2000/svg" xmlns:xlink="http://www.w3.org/1999/xlink" xml:space="preserve" overflow="hidden"><defs><clipPath id="clip0"><rect x="1105" y="874" width="288" height="288"/></clipPath></defs><g clip-path="url(#clip0)" transform="translate(-1105 -874)"><path d="M1153.15 874 1344.85 874C1353.3 873.983 1361.73 876.231 1369.03 880.484 1375.58 884.246 1381.18 889.633 1385.3 895.955 1390.14 903.466 1392.9 912.316 1393 921.264L1393 1114.74C1392.86 1126.79 1387.93 1138.71 1379.5 1147.32 1370.79 1156.46 1358.34 1161.86 1345.72 1162L1152.29 1162C1144.19 1161.91 1136.16 1159.65 1129.15 1155.63 1122.48 1151.81 1116.76 1146.34 1112.61 1139.89 1107.77 1132.33 1105.08 1123.43 1105 1114.45L1105 921.36C1105.15 916.097 1105.96 910.806 1107.85 905.872 1110.82 897.36 1116.35 889.805 1123.43 884.24 1131.82 877.636 1142.46 873.959 1153.15 874M1156.35 922.873C1156.35 942.169 1156.62 961.456 1156.56 980.755 1156.71 988.604 1156.6 996.461 1156.64 1004.32 1156.64 1013.92 1156.64 1023.52 1156.64 1033.12 1156.61 1037.39 1156.71 1041.65 1156.56 1045.92 1156.57 1054.64 1156.56 1063.37 1156.56 1072.09 1156.6 1079.86 1156.44 1087.62 1156.49 1095.39 1156.44 1101.94 1156.61 1108.49 1156.38 1115.03 1162.43 1115.03 1168.47 1114.9 1174.51 1114.95 1183.05 1115 1191.58 1114.83 1200.12 1114.87 1207.28 1114.84 1214.44 1114.94 1221.6 1114.82 1232.97 1114.77 1244.33 1114.81 1255.7 1114.8 1266.85 1114.81 1277.99 1114.75 1289.14 1114.87 1306.7 1114.85 1324.24 1115.03 1341.8 1115.09 1341.58 1091.27 1341.67 1067.43 1341.65 1043.6 1341.61 1030.96 1341.78 1018.33 1341.73 1005.69 1336.75 1005.75 1331.78 1005.84 1326.81 1005.9 1314.22 1006.01 1301.64 1005.8 1289.06 1005.85 1289.44 1024.83 1289.01 1043.83 1289.37 1062.81 1273.3 1062.49 1257.21 1062.44 1241.13 1062.43 1236.19 1062.63 1231.25 1062.38 1226.32 1062.58 1220.47 1062.59 1214.63 1062.79 1208.78 1062.8 1208.81 1054.84 1208.99 1046.89 1209.07 1038.94 1209.03 1028.46 1209.27 1017.99 1209.07 1007.52 1209.14 996.828 1208.86 986.145 1208.79 975.46 1214.53 975.527 1220.27 975.679 1226.02 975.67 1230.96 975.871 1235.91 975.62 1240.86 975.821 1245.02 975.78 1249.19 975.9 1253.35 975.743 1274.4 975.748 1295.44 975.743 1316.49 975.745 1324.99 975.795 1333.49 975.952 1341.99 976.042 1341.41 958.329 1341.5 940.583 1341.96 922.864 1339.19 922.713 1336.42 922.844 1333.65 922.797 1328.91 922.995 1324.16 922.751 1319.42 922.948 1311.87 922.928 1304.33 923.012 1296.78 923.068 1282.11 923.129 1267.43 923.065 1252.76 923.1 1250.44 923.207 1248.11 923.193 1245.79 923.091 1233.38 923.091 1220.97 923.091 1208.56 923.091 1200.23 922.893 1191.88 923.14 1183.55 922.945 1174.48 923.001 1165.42 922.858 1156.35 922.873Z"/></g></svg>