<svg width="288" height="288" xmlns="http://www.w3.org/2000/svg" xmlns:xlink="http://www.w3.org/1999/xlink" xml:space="preserve" overflow="hidden"><defs><clipPath id="clip0"><rect x="-1161" y="874" width="288" height="288"/></clipPath></defs><g clip-path="url(#clip0)" transform="translate(1161 -874)"><path d="M-1112.85 874-921.151 874C-912.703 873.983-904.273 876.231-896.974 880.484-890.423 884.246-884.823 889.633-880.698 895.955-875.863 903.466-873.102 912.316-873 921.264L-873 1114.74C-873.143 1126.79-878.071 1138.71-886.501 1147.32-895.205 1156.46-907.665 1161.86-920.281 1162L-1113.71 1162C-1121.81 1161.91-1129.84 1159.65-1136.85 1155.63-1143.52 1151.81-1149.24 1146.34-1153.39 1139.89-1158.23 1132.33-1160.92 1123.43-1161 1114.45L-1161 921.36C-1160.85 916.097-1160.04 910.806-1158.15 905.872-1155.18 897.36-1149.65 889.805-1142.57 884.24-1134.18 877.636-1123.54 873.959-1112.85 874M-1109.65 922.873C-1109.65 942.169-1109.38 961.456-1109.44 980.755-1109.29 988.604-1109.4 996.461-1109.36 1004.32-1109.36 1013.92-1109.36 1023.52-1109.36 1033.12-1109.39 1037.39-1109.29 1041.65-1109.44 1045.92-1109.43 1054.64-1109.44 1063.37-1109.44 1072.09-1109.4 1079.86-1109.56 1087.62-1109.51 1095.39-1109.56 1101.94-1109.39 1108.49-1109.62 1115.03-1103.57 1115.03-1097.53 1114.9-1091.49 1114.95-1082.95 1115-1074.42 1114.83-1065.88 1114.87-1058.72 1114.84-1051.56 1114.94-1044.4 1114.82-1033.03 1114.77-1021.67 1114.81-1010.3 1114.8-999.153 1114.81-988.005 1114.75-976.86 1114.87-959.304 1114.85-941.756 1115.03-924.203 1115.09-924.418 1091.27-924.328 1067.43-924.345 1043.6-924.395 1030.96-924.223 1018.33-924.273 1005.69-929.247 1005.75-934.219 1005.84-939.193 1005.9-951.778 1006.01-964.357 1005.8-976.942 1005.85-976.564 1024.83-976.994 1043.83-976.628 1062.81-992.703 1062.49-1008.79 1062.44-1024.87 1062.43-1029.81 1062.63-1034.75 1062.38-1039.68 1062.58-1045.53 1062.59-1051.37 1062.79-1057.22 1062.8-1057.19 1054.84-1057.01 1046.89-1056.93 1038.94-1056.97 1028.46-1056.73 1017.99-1056.93 1007.52-1056.86 996.828-1057.14 986.145-1057.21 975.46-1051.47 975.527-1045.73 975.679-1039.98 975.67-1035.04 975.871-1030.09 975.62-1025.14 975.821-1020.98 975.78-1016.81 975.9-1012.65 975.743-991.604 975.748-970.559 975.743-949.515 975.745-941.012 975.795-932.511 975.952-924.011 976.042-924.59 958.329-924.5 940.583-924.043 922.864-926.807 922.713-929.582 922.844-932.348 922.797-937.09 922.995-941.841 922.751-946.583 922.948-954.129 922.928-961.675 923.012-969.221 923.068-983.895 923.129-998.568 923.065-1013.24 923.1-1015.56 923.207-1017.89 923.193-1020.21 923.091-1032.62 923.091-1045.03 923.091-1057.44 923.091-1065.77 922.893-1074.12 923.14-1082.45 922.945-1091.52 923.001-1100.58 922.858-1109.65 922.873Z" fill="#FFFFFF"/></g></svg>