<svg width="2674" height="808" xmlns="http://www.w3.org/2000/svg" xmlns:xlink="http://www.w3.org/1999/xlink" xml:space="preserve" overflow="hidden"><defs><clipPath id="clip0"><rect x="573" y="1215" width="2674" height="808"/></clipPath></defs><g clip-path="url(#clip0)" transform="translate(-573 -1215)"><path d="M596 1619C596 1408.58 766.803 1238 977.5 1238 1188.2 1238 1359 1408.58 1359 1619 1359 1829.42 1188.2 2000 977.5 2000 766.803 2000 596 1829.42 596 1619Z" stroke="#63379D" stroke-width="45.8333" stroke-miterlimit="8" fill="#FFFFFF" fill-rule="evenodd" fill-opacity="0"/><g><g><g><path d="M834.725 1404 1120.27 1404C1132.86 1403.97 1145.42 1407.32 1156.29 1413.66 1166.05 1419.26 1174.39 1427.29 1180.53 1436.7 1187.74 1447.89 1191.85 1461.07 1192 1474.4L1192 1762.6C1191.79 1780.55 1184.45 1798.31 1171.89 1811.14 1158.92 1824.74 1140.36 1832.79 1121.57 1833L833.443 1833C821.383 1832.86 809.414 1829.5 798.967 1823.51 789.035 1817.82 780.515 1809.68 774.332 1800.06 767.121 1788.81 763.126 1775.54 763 1762.18L763 1474.55C763.217 1466.71 764.434 1458.83 767.238 1451.48 771.667 1438.8 779.909 1427.54 790.452 1419.25 802.958 1409.42 818.805 1403.94 834.725 1404M839.483 1476.8C839.492 1505.54 839.899 1534.27 839.808 1563.02 840.029 1574.71 839.869 1586.42 839.917 1598.12 839.917 1612.42 839.917 1626.72 839.917 1641.02 839.873 1647.38 840.029 1653.73 839.804 1660.08 839.817 1673.08 839.804 1686.08 839.808 1699.08 839.86 1710.65 839.618 1722.21 839.7 1733.78 839.618 1743.53 839.878 1753.29 839.54 1763.03 848.544 1763.03 857.54 1762.83 866.545 1762.91 879.263 1762.99 891.969 1762.73 904.687 1762.8 915.351 1762.75 926.02 1762.9 936.68 1762.73 953.615 1762.64 970.549 1762.71 987.48 1762.69 1004.09 1762.71 1020.69 1762.62 1037.29 1762.8 1063.44 1762.77 1089.58 1763.04 1115.73 1763.12 1115.41 1727.63 1115.54 1692.13 1115.52 1656.63 1115.44 1637.81 1115.7 1618.99 1115.63 1600.17 1108.22 1600.26 1100.81 1600.39 1093.4 1600.48 1074.65 1600.65 1055.92 1600.33 1037.17 1600.4 1037.73 1628.68 1037.09 1656.98 1037.64 1685.25 1013.69 1684.78 989.733 1684.69 965.778 1684.69 958.425 1684.99 951.062 1684.61 943.713 1684.91 935.003 1684.92 926.302 1685.21 917.592 1685.23 917.639 1673.38 917.899 1661.54 918.025 1649.69 917.969 1634.09 918.324 1618.49 918.025 1602.89 918.12 1586.96 917.713 1571.05 917.6 1555.13 926.154 1555.23 934.708 1555.46 943.267 1555.45 950.629 1555.74 958.009 1555.37 965.371 1555.67 971.576 1555.61 977.782 1555.79 983.983 1555.55 1015.33 1555.56 1046.68 1555.55 1078.02 1555.56 1090.69 1555.63 1103.35 1555.87 1116.02 1556 1115.15 1529.61 1115.29 1503.18 1115.97 1476.79 1111.85 1476.56 1107.72 1476.76 1103.6 1476.69 1096.53 1476.98 1089.46 1476.62 1082.39 1476.91 1071.15 1476.88 1059.91 1477.01 1048.67 1477.09 1026.81 1477.18 1004.96 1477.09 983.099 1477.14 979.645 1477.3 976.178 1477.28 972.72 1477.12 954.234 1477.12 935.748 1477.12 917.262 1477.12 904.847 1476.83 892.419 1477.2 880.009 1476.91 866.497 1476.99 852.995 1476.78 839.483 1476.8Z" fill="#63379D"/></g></g></g><path d="M2880.01 1378C2907.99 1378.06 2935.98 1378 2963.98 1378.02 2964 1536 2963.94 1693.98 2964 1851.96 2936 1852.04 2907.99 1851.98 2880.01 1852 2880.01 1694 2879.99 1536 2880.01 1378Z" fill="#63379D" fill-rule="evenodd"/><path d="M1689.35 1406.2C1748.97 1398.75 1810.02 1404.52 1867.66 1421.21 1865.98 1446.14 1863.78 1471.05 1862.11 1496 1832.99 1482.66 1801.17 1476.02 1769.38 1473.38 1736.29 1470.79 1701.79 1473.6 1671.42 1487.85 1637.92 1503.3 1612.16 1533.16 1599.26 1567.43 1587.54 1599.01 1585.82 1633.74 1591.09 1666.81 1597.14 1704.55 1617.39 1740.36 1648.43 1763.05 1671.7 1780.28 1700.72 1788.34 1729.41 1789.4 1751.8 1790.08 1774.39 1788.6 1796.18 1783.27 1796.2 1744.97 1796.18 1706.67 1796.18 1668.38 1764.98 1668.36 1733.77 1668.38 1702.57 1668.36 1702.55 1645.17 1702.57 1621.98 1702.57 1598.79 1762.05 1598.75 1821.52 1598.81 1881 1598.77 1880.94 1677.98 1881 1757.2 1880.94 1836.42 1834.71 1848.42 1787.55 1858.94 1739.56 1859 1698.5 1859.18 1656.82 1853.89 1618.63 1838.18 1577.85 1821.51 1541.94 1791.53 1521.47 1752.23 1497.2 1707.09 1493.05 1654.05 1497.64 1603.84 1502.1 1556.53 1518.73 1509.07 1551.47 1473.82 1586.78 1434.76 1637.7 1412.71 1689.35 1406.2Z" fill="#63379D" fill-rule="evenodd"/><path d="M1980.35 1543.67C2031.12 1521.5 2088.58 1512.9 2143.23 1523.54 2169.09 1528.56 2195.06 1540.57 2210.5 1562.76 2229.49 1589.91 2233.73 1624.19 2233.89 1656.54 2233.89 1721.84 2233.77 1787.27 2239 1852.4 2214.09 1852.44 2189.19 1852.4 2164.28 1852.42 2161.62 1835.99 2161.66 1819.34 2160.25 1802.8 2149.84 1820.8 2134.7 1836.05 2116.07 1845.42 2084.77 1862.56 2046.38 1864.16 2012.97 1852.48 1989.16 1843.69 1966.43 1828.11 1954.53 1805.08 1943.26 1783.43 1943.22 1757.73 1948.05 1734.32 1953.39 1708.93 1970.8 1687.08 1993.09 1674.29 2019.1 1659.07 2049.52 1654.4 2079.14 1652.32 2104.98 1650.54 2130.91 1651.36 2156.79 1651.14 2156.53 1633.63 2154.49 1614.51 2142.91 1600.52 2131.01 1586.89 2112.13 1582.67 2094.84 1581.43 2054.73 1578.21 2014.66 1592.71 1982.85 1616.65 1981.93 1592.33 1981.33 1568 1980.35 1543.67M2084.23 1704.19C2066.95 1706.95 2048.94 1712.81 2037.07 1726.4 2027.11 1736.92 2024.47 1752.49 2026.67 1766.4 2028.19 1776.48 2034.82 1785.33 2043.79 1790.03 2058.62 1798.01 2076.24 1799.19 2092.7 1797.07 2111.71 1794.55 2129.19 1783.49 2139.95 1767.64 2153.96 1748.89 2156.55 1724.58 2156.73 1701.87 2132.56 1702.01 2108.26 1700.81 2084.23 1704.19Z" fill="#63379D" fill-rule="evenodd"/><path d="M2418.58 1546.21C2443.78 1524.57 2478.62 1515.53 2511.32 1520.2 2534.65 1522.83 2557.7 1533.11 2572.9 1551.48 2579.35 1558.91 2584.21 1567.55 2588.64 1576.29 2604.95 1542.82 2641.21 1523.21 2677.25 1519.72 2702.89 1517.48 2730.48 1520.72 2752.04 1535.89 2770.43 1548.45 2781.26 1569.29 2786.72 1590.43 2794.31 1620.43 2792.72 1651.63 2792.9 1682.29 2792.94 1738.86 2793.02 1795.42 2793 1851.99 2764.77 1851.97 2736.54 1852.03 2708.31 1851.95 2708.41 1788.07 2708.33 1724.17 2708.35 1660.29 2708.07 1643.34 2708.95 1625.68 2702.41 1609.69 2697.81 1597.63 2686.65 1588.59 2674.06 1586.17 2660.2 1583.42 2644.96 1584.28 2632.56 1591.56 2621.09 1598.71 2612.42 1609.95 2607.62 1622.54 2598.72 1644.6 2597.12 1668.74 2596.78 1692.29 2596.76 1745.53 2596.86 1798.75 2596.9 1851.99 2568.69 1852.01 2540.46 1851.99 2512.25 1851.99 2512.25 1788.79 2512.21 1725.59 2512.29 1662.39 2511.91 1644.88 2513.13 1626.62 2506.46 1610.03 2501.97 1598.01 2491 1588.83 2478.49 1586.31 2461.63 1582.64 2442.25 1584.92 2429.12 1596.97 2415.79 1608.39 2409.26 1625.44 2405.43 1642.13 2401.27 1661.21 2400.69 1680.85 2400.63 1700.32 2400.71 1750.86 2400.69 1801.42 2400.69 1851.99 2372.46 1851.97 2344.23 1852.05 2316 1851.95 2316.04 1743.51 2316.02 1635.08 2316 1526.65 2342.34 1526.55 2368.67 1526.61 2395.03 1526.61 2395.13 1542.06 2394.81 1557.51 2395.21 1572.96 2402.46 1563.6 2409.4 1553.82 2418.58 1546.21Z" fill="#63379D" fill-rule="evenodd"/><path d="M3188.73 1526.34C3206.7 1517.48 3227.62 1517.76 3246.9 1521.35 3247.06 1549.79 3246.9 1578.26 3247 1606.7 3230.66 1599.78 3212.16 1598.6 3194.75 1601.23 3174.53 1604.67 3159.45 1621.38 3152.01 1639.62 3140.73 1668.4 3140.19 1699.78 3139.95 1730.27 3139.93 1770.83 3139.91 1811.37 3139.97 1851.93 3111.65 1852.07 3083.32 1851.95 3055 1851.99 3055 1743.54 3055 1635.07 3055 1526.62 3080.16 1526.6 3105.35 1526.6 3130.53 1526.62 3130.93 1551.53 3129.71 1576.52 3131.15 1601.35 3137.17 1569.24 3159.41 1540.69 3188.73 1526.34Z" fill="#63379D" fill-rule="evenodd"/></g></svg>