<svg width="2674" height="809" xmlns="http://www.w3.org/2000/svg" xmlns:xlink="http://www.w3.org/1999/xlink" xml:space="preserve" overflow="hidden"><defs><clipPath id="clip0"><rect x="403" y="1772" width="430" height="430"/></clipPath><clipPath id="clip1"><rect x="403" y="1772" width="430" height="430"/></clipPath><clipPath id="clip2"><rect x="403" y="1772" width="430" height="430"/></clipPath></defs><g transform="translate(-214 -1582)"><path d="M237 1986.5C237 1775.8 407.803 1605 618.5 1605 829.197 1605 1000 1775.8 1000 1986.5 1000 2197.2 829.197 2368 618.5 2368 407.803 2368 237 2197.2 237 1986.5Z" stroke="#FFFFFF" stroke-width="45.8333" stroke-miterlimit="8" fill="#FFFFFF" fill-rule="evenodd" fill-opacity="0"/><g clip-path="url(#clip0)"><g clip-path="url(#clip1)"><g clip-path="url(#clip2)"><path d="M475.725 1772 761.275 1772C773.859 1771.97 786.417 1775.32 797.289 1781.66 807.048 1787.26 815.389 1795.29 821.534 1804.7 828.736 1815.89 832.848 1829.07 833 1842.4L833 2130.6C832.788 2148.55 825.447 2166.31 812.889 2179.14 799.924 2192.75 781.364 2200.79 762.57 2201L474.443 2201C462.383 2200.86 450.414 2197.5 439.967 2191.51 430.035 2185.82 421.515 2177.68 415.332 2168.06 408.121 2156.81 404.126 2143.54 404 2130.18L404 1842.55C404.217 1834.71 405.434 1826.83 408.238 1819.48 412.667 1806.8 420.909 1795.54 431.452 1787.25 443.958 1777.42 459.805 1771.94 475.725 1772M480.483 1844.8C480.492 1873.54 480.899 1902.27 480.808 1931.02 481.029 1942.71 480.869 1954.42 480.917 1966.12 480.917 1980.42 480.917 1994.72 480.917 2009.02 480.873 2015.38 481.029 2021.73 480.804 2028.08 480.817 2041.08 480.804 2054.08 480.808 2067.08 480.86 2078.65 480.618 2090.21 480.7 2101.78 480.618 2111.53 480.878 2121.29 480.54 2131.03 489.544 2131.03 498.54 2130.83 507.545 2130.91 520.263 2130.99 532.969 2130.73 545.687 2130.8 556.351 2130.75 567.02 2130.9 577.68 2130.73 594.615 2130.64 611.549 2130.71 628.48 2130.69 645.085 2130.71 661.69 2130.62 678.291 2130.8 704.443 2130.77 730.582 2131.04 756.729 2131.12 756.408 2095.64 756.543 2060.13 756.517 2024.63 756.443 2005.81 756.699 1986.99 756.625 1968.17 749.215 1968.26 741.809 1968.39 734.399 1968.48 715.653 1968.65 696.916 1968.33 678.17 1968.4 678.733 1996.68 678.092 2024.98 678.638 2053.25 654.692 2052.78 630.733 2052.69 606.778 2052.69 599.425 2052.99 592.062 2052.61 584.713 2052.91 576.003 2052.92 567.302 2053.21 558.592 2053.23 558.639 2041.38 558.899 2029.54 559.025 2017.69 558.969 2002.09 559.324 1986.49 559.025 1970.89 559.12 1954.96 558.713 1939.05 558.6 1923.13 567.154 1923.23 575.708 1923.46 584.267 1923.45 591.629 1923.74 599.009 1923.37 606.371 1923.67 612.576 1923.61 618.782 1923.79 624.983 1923.55 656.33 1923.56 687.677 1923.55 719.025 1923.56 731.691 1923.63 744.353 1923.87 757.015 1924 756.153 1897.61 756.287 1871.18 756.967 1844.79 752.851 1844.56 748.717 1844.76 744.596 1844.69 737.532 1844.98 730.456 1844.62 723.393 1844.91 712.152 1844.88 700.911 1845.01 689.671 1845.09 667.813 1845.18 645.956 1845.09 624.099 1845.14 620.645 1845.3 617.178 1845.28 613.72 1845.12 595.234 1845.12 576.748 1845.12 558.262 1845.12 545.847 1844.83 533.419 1845.2 521.009 1844.91 507.497 1844.99 493.995 1844.78 480.483 1844.8Z" fill="#FFFFFF"/></g></g></g><path d="M2521.01 1745C2548.99 1745.06 2576.98 1745 2604.98 1745.02 2605 1903.33 2604.94 2061.64 2605 2219.96 2577 2220.04 2548.99 2219.98 2521.01 2220 2521.01 2061.66 2520.99 1903.33 2521.01 1745Z" fill="#FFFFFF" fill-rule="evenodd"/><path d="M1330.35 1774.2C1389.97 1766.75 1451.02 1772.52 1508.66 1789.21 1506.98 1814.14 1504.78 1839.05 1503.11 1864 1473.99 1850.66 1442.17 1844.02 1410.38 1841.38 1377.29 1838.79 1342.79 1841.6 1312.42 1855.85 1278.92 1871.3 1253.16 1901.16 1240.26 1935.43 1228.54 1967.01 1226.82 2001.74 1232.09 2034.81 1238.14 2072.55 1258.39 2108.36 1289.43 2131.05 1312.7 2148.28 1341.72 2156.34 1370.41 2157.4 1392.8 2158.08 1415.39 2156.6 1437.18 2151.27 1437.2 2112.97 1437.18 2074.67 1437.18 2036.38 1405.98 2036.36 1374.77 2036.38 1343.57 2036.36 1343.55 2013.17 1343.57 1989.98 1343.57 1966.79 1403.05 1966.75 1462.52 1966.81 1522 1966.77 1521.94 2045.98 1522 2125.2 1521.94 2204.42 1475.71 2216.42 1428.55 2226.94 1380.56 2227 1339.5 2227.18 1297.82 2221.89 1259.63 2206.18 1218.85 2189.51 1182.94 2159.53 1162.47 2120.23 1138.2 2075.09 1134.05 2022.05 1138.64 1971.84 1143.1 1924.53 1159.73 1877.07 1192.47 1841.82 1227.78 1802.76 1278.7 1780.71 1330.35 1774.2Z" fill="#FFFFFF" fill-rule="evenodd"/><path d="M1621.35 1911.6C1672.12 1889.49 1729.58 1880.92 1784.23 1891.53 1810.1 1896.53 1836.06 1908.51 1851.5 1930.63 1870.49 1957.7 1874.73 1991.88 1874.89 2024.13 1874.89 2089.25 1874.77 2154.49 1880 2219.42 1855.09 2219.46 1830.19 2219.42 1805.28 2219.44 1802.63 2203.06 1802.67 2186.46 1801.25 2169.97 1790.84 2187.91 1775.7 2203.12 1757.07 2212.47 1725.77 2229.55 1687.38 2231.14 1653.97 2219.5 1630.16 2210.73 1607.43 2195.21 1595.53 2172.25 1584.26 2150.66 1584.22 2125.03 1589.06 2101.69 1594.39 2076.37 1611.8 2054.59 1634.09 2041.83 1660.1 2026.66 1690.52 2022 1720.14 2019.93 1745.98 2018.15 1771.91 2018.97 1797.79 2018.75 1797.53 2001.29 1795.49 1982.23 1783.91 1968.28 1772.01 1954.69 1753.13 1950.48 1735.84 1949.25 1695.73 1946.04 1655.66 1960.49 1623.85 1984.37 1622.93 1960.11 1622.33 1935.85 1621.35 1911.6M1725.23 2071.65C1707.95 2074.4 1689.94 2080.24 1678.07 2093.79 1668.11 2104.28 1665.47 2119.8 1667.67 2133.68 1669.19 2143.72 1675.82 2152.55 1684.79 2157.24 1699.62 2165.19 1717.24 2166.37 1733.7 2164.25 1752.71 2161.74 1770.19 2150.72 1780.95 2134.91 1794.96 2116.22 1797.55 2091.98 1797.73 2069.34 1773.56 2069.48 1749.26 2068.28 1725.23 2071.65Z" fill="#FFFFFF" fill-rule="evenodd"/><path d="M2059.58 1914.21C2084.78 1892.57 2119.62 1883.53 2152.32 1888.2 2175.65 1890.83 2198.7 1901.11 2213.9 1919.48 2220.35 1926.91 2225.21 1935.55 2229.64 1944.29 2245.95 1910.82 2282.21 1891.21 2318.25 1887.72 2343.89 1885.48 2371.48 1888.72 2393.04 1903.89 2411.43 1916.45 2422.26 1937.29 2427.72 1958.43 2435.31 1988.43 2433.72 2019.63 2433.9 2050.29 2433.94 2106.86 2434.02 2163.42 2434 2219.99 2405.77 2219.97 2377.54 2220.03 2349.31 2219.95 2349.41 2156.07 2349.33 2092.17 2349.35 2028.29 2349.07 2011.34 2349.95 1993.68 2343.41 1977.69 2338.81 1965.63 2327.65 1956.59 2315.06 1954.17 2301.2 1951.42 2285.96 1952.28 2273.56 1959.56 2262.09 1966.71 2253.42 1977.95 2248.62 1990.54 2239.72 2012.6 2238.12 2036.74 2237.78 2060.29 2237.76 2113.53 2237.86 2166.75 2237.9 2219.99 2209.69 2220.01 2181.46 2219.99 2153.25 2219.99 2153.25 2156.79 2153.21 2093.59 2153.29 2030.39 2152.92 2012.88 2154.13 1994.62 2147.46 1978.03 2142.97 1966.01 2132 1956.83 2119.49 1954.31 2102.63 1950.64 2083.25 1952.92 2070.12 1964.97 2056.79 1976.39 2050.26 1993.44 2046.43 2010.13 2042.27 2029.21 2041.69 2048.85 2041.63 2068.32 2041.71 2118.86 2041.69 2169.42 2041.69 2219.99 2013.46 2219.97 1985.23 2220.05 1957 2219.95 1957.04 2111.51 1957.02 2003.08 1957 1894.65 1983.34 1894.55 2009.67 1894.61 2036.03 1894.61 2036.13 1910.06 2035.81 1925.51 2036.21 1940.96 2043.46 1931.6 2050.4 1921.81 2059.58 1914.21Z" fill="#FFFFFF" fill-rule="evenodd"/><path d="M2829.73 1894.34C2847.7 1885.48 2868.62 1885.75 2887.9 1889.35 2888.06 1917.79 2887.9 1946.26 2888 1974.7 2871.66 1967.78 2853.16 1966.6 2835.75 1969.23 2815.53 1972.67 2800.45 1989.38 2793.01 2007.62 2781.73 2036.4 2781.19 2067.78 2780.95 2098.26 2780.93 2138.83 2780.91 2179.37 2780.97 2219.93 2752.65 2220.07 2724.32 2219.95 2696 2219.99 2696 2111.54 2696 2003.07 2696 1894.62 2721.16 1894.6 2746.35 1894.6 2771.53 1894.62 2771.93 1919.53 2770.71 1944.52 2772.15 1969.35 2778.17 1937.24 2800.41 1908.69 2829.73 1894.34Z" fill="#FFFFFF" fill-rule="evenodd"/></g></svg>