<svg width="6786" height="1805" xmlns="http://www.w3.org/2000/svg" xmlns:xlink="http://www.w3.org/1999/xlink" xml:space="preserve" overflow="hidden"><defs><clipPath id="clip0"><rect x="3388" y="2596" width="6786" height="1805"/></clipPath><clipPath id="clip1"><rect x="3798" y="3004" width="991" height="991"/></clipPath><clipPath id="clip2"><rect x="3798" y="3004" width="991" height="991"/></clipPath><clipPath id="clip3"><rect x="3798" y="3004" width="991" height="991"/></clipPath></defs><g clip-path="url(#clip0)" transform="translate(-3388 -2596)"><g clip-path="url(#clip1)"><g clip-path="url(#clip2)"><g clip-path="url(#clip3)"><path d="M3963.52 3004 4622.48 3004C4651.52 3003.94 4680.5 3011.67 4705.59 3026.29 4728.11 3039.22 4747.36 3057.74 4761.54 3079.47 4778.16 3105.29 4787.65 3135.71 4788 3166.47L4788 3831.53C4787.51 3872.96 4770.57 3913.95 4741.59 3943.55 4711.67 3974.95 4668.84 3993.52 4625.47 3994L3960.56 3994C3932.73 3993.68 3905.11 3985.93 3881 3972.09 3858.08 3958.98 3838.42 3940.18 3824.15 3917.98 3807.51 3892.02 3798.29 3861.41 3798 3830.56L3798 3166.8C3798.5 3148.71 3801.31 3130.52 3807.78 3113.56 3818 3084.3 3837.02 3058.33 3861.35 3039.2 3890.21 3016.5 3926.78 3003.86 3963.52 3004M3974.5 3172C3974.52 3238.33 3975.46 3304.63 3975.25 3370.97 3975.76 3397.95 3975.39 3424.96 3975.5 3451.96 3975.5 3484.97 3975.5 3517.97 3975.5 3550.98 3975.4 3565.64 3975.76 3580.31 3975.24 3594.96 3975.27 3624.95 3975.24 3654.95 3975.25 3684.95 3975.37 3711.65 3974.81 3738.33 3975 3765.03 3974.81 3787.53 3975.41 3810.05 3974.63 3832.54 3995.41 3832.53 4016.17 3832.08 4036.95 3832.25 4066.3 3832.44 4095.62 3831.84 4124.97 3832 4149.58 3831.89 4174.2 3832.23 4198.8 3831.83 4237.88 3831.64 4276.96 3831.8 4316.03 3831.75 4354.35 3831.79 4392.67 3831.59 4430.98 3832 4491.33 3831.92 4551.65 3832.55 4611.99 3832.75 4611.25 3750.85 4611.56 3668.92 4611.5 3587 4611.33 3543.56 4611.92 3500.14 4611.75 3456.7 4594.65 3456.9 4577.56 3457.2 4560.46 3457.41 4517.2 3457.8 4473.96 3457.06 4430.7 3457.24 4432 3522.49 4430.52 3587.79 4431.78 3653.04 4376.52 3651.95 4321.23 3651.75 4265.95 3651.74 4248.98 3652.43 4231.99 3651.57 4215.03 3652.26 4194.93 3652.28 4174.85 3652.95 4154.75 3653 4154.86 3625.65 4155.46 3598.32 4155.75 3570.98 4155.62 3534.97 4156.44 3498.97 4155.75 3462.97 4155.97 3426.22 4155.03 3389.5 4154.77 3352.77 4174.51 3353 4194.25 3353.52 4214 3353.49 4230.99 3354.18 4248.02 3353.32 4265.01 3354.01 4279.33 3353.87 4293.65 3354.28 4307.96 3353.74 4380.3 3353.76 4452.64 3353.74 4524.98 3353.75 4554.21 3353.92 4583.43 3354.46 4612.65 3354.77 4610.66 3293.88 4610.97 3232.88 4612.54 3171.97 4603.04 3171.45 4593.5 3171.9 4583.99 3171.74 4567.69 3172.42 4551.36 3171.58 4535.06 3172.26 4509.12 3172.19 4483.18 3172.48 4457.24 3172.67 4406.8 3172.88 4356.36 3172.66 4305.92 3172.78 4297.95 3173.15 4289.95 3173.1 4281.97 3172.75 4239.31 3172.75 4196.65 3172.75 4153.99 3172.75 4125.34 3172.07 4096.66 3172.92 4068.02 3172.25 4036.84 3172.44 4005.68 3171.95 3974.5 3172Z"/></g></g></g><path d="M9274.1 2841.54C9306.25 2834.14 9339.96 2835.14 9372.61 2838.84 9388.41 2840.19 9408.41 2849.79 9405.76 2868.75 9405.76 3278.98 9405.81 3689.27 9405.76 4099.5 9407.66 4116.06 9390.21 4124.41 9376.46 4126.46 9345.56 4131.16 9313.8 4131.16 9282.9 4126.56 9268.9 4124.61 9250.85 4116.61 9253.3 4099.5 9253.2 3689.12 9253.25 3278.78 9253.25 2868.45 9251.25 2855.1 9261.55 2844.09 9274.1 2841.54Z" fill-rule="evenodd"/><path d="M5767.15 3060.68C5854 2980.1 5967.81 2930.82 6085.03 2916.56 6165.28 2906.86 6247.42 2909.41 6326.32 2927.67 6392.56 2942.68 6459.24 2963.34 6515.43 3002.76 6535.04 3014.96 6551.05 3034.67 6553.05 3058.38 6555.45 3088.4 6558.05 3120.86 6544.84 3148.82 6536.19 3164.98 6515.63 3159.88 6503.42 3151.08 6410.82 3089.6 6302.2 3047.93 6190.04 3047.18 6107.39 3044.18 6022.75 3061.48 5952.06 3105.6 5876.31 3151.28 5819.68 3224.66 5787.81 3306.6 5754.14 3391.09 5744.19 3483.48 5750.04 3573.83 5755.74 3673.02 5785.81 3772.82 5846.85 3852.31 5897.12 3918.54 5970.57 3965.76 6050.86 3986.57 6164.23 4016.04 6289.35 4004.18 6392.96 3948.65 6392.91 3832.45 6392.96 3716.24 6392.91 3600.04 6300.25 3599.99 6207.6 3600.09 6114.95 3599.79 6100.24 3600.54 6091.19 3586.43 6088.18 3573.83 6082.68 3550.12 6083.18 3525.25 6086.68 3501.29 6088.83 3486.74 6097.99 3468.63 6115.2 3469.73 6241.97 3469.53 6368.79 3469.58 6495.56 3469.68 6515.78 3469.53 6536.79 3480.38 6545.24 3499.29 6553.3 3516.4 6552.15 3535.76 6552.15 3554.17 6552.05 3699.19 6552.2 3844.21 6552.1 3989.22 6551.85 4009.48 6548.34 4031.99 6532.79 4046.5 6517.18 4060.96 6496.71 4068.36 6477.55 4076.92 6362.09 4125.94 6235.17 4148.3 6109.9 4138.9 5996.43 4131.69 5883.12 4095.88 5792.37 4026.09 5677.25 3938.6 5609.56 3800.13 5589.7 3658.87 5572.89 3536.71 5579.24 3409.7 5619.27 3292.49 5649.48 3205.15 5698.81 3123.46 5767.15 3060.68Z" fill-rule="evenodd"/><path d="M6879.08 3288.35C6968.71 3243.39 7070.66 3222.99 7170.71 3229.04 7249.04 3233.29 7333.17 3252.59 7389.08 3311.5 7444.18 3369.2 7458.14 3452.71 7459.6 3529.56 7460 3719.63 7459.7 3909.69 7459.75 4099.75 7462.05 4114.7 7448.33 4124.25 7435.32 4126.6 7408.95 4131.7 7381.47 4131.25 7355.04 4127.2 7343.13 4125.3 7327.87 4118.95 7328.67 4104.45 7327.87 4076.2 7328.42 4047.9 7328.27 4019.6 7266.11 4085.45 7182.22 4135 7090.38 4141.1 7017.01 4145.61 6939.64 4133.7 6877.42 4092.45 6825.17 4058.25 6789.89 4000.85 6780.18 3939.49 6768.97 3870.39 6779.28 3794.23 6823.72 3738.08 6871.22 3676.52 6946.84 3645.07 7020.92 3629.12 7115.16 3608.02 7212.15 3613.07 7308 3612.47 7307.35 3552.46 7313.45 3488.91 7286.68 3433.11 7268.96 3394.9 7231.32 3369.2 7190.98 3359.8 7111.15 3341.55 7026.77 3354.8 6952.65 3387.95 6922.12 3400.7 6893.74 3417.75 6864.56 3433.06 6851.4 3441.11 6831.98 3438.91 6825.12 3423.85 6813.91 3401.25 6816.42 3374.7 6818.42 3350.35 6821.92 3318.25 6853.75 3302.15 6879.08 3288.35M6971.42 3780.93C6933.28 3817.03 6925.42 3875.09 6937.58 3924.14 6948.14 3966.94 6983.08 4001.75 7025.22 4014 7071.61 4027.8 7122.77 4025.65 7167.91 4008.2 7223.71 3985.54 7267.96 3942.64 7308.05 3898.99 7308.05 3840.18 7308 3781.38 7307.95 3722.58 7250.59 3723.23 7193.18 3721.18 7135.88 3723.83 7077.82 3727.93 7015.21 3739.58 6971.42 3780.93Z" fill-rule="evenodd"/><path d="M8038.9 3251.54C8113.59 3217.17 8202.84 3220.17 8277.63 3252.64 8337.06 3278.56 8380.73 3331.74 8404.05 3391.28 8457.47 3335.54 8514.6 3280.01 8586.44 3248.79 8643.52 3223.12 8708.91 3222.37 8769.29 3235.63 8841.48 3251.79 8904.21 3303.02 8935.68 3369.87 8971.85 3445.57 8975.95 3531.52 8974.85 3614.03 8974.85 3775.83 8974.95 3937.64 8974.8 4099.44 8976.7 4115.9 8959.54 4124.36 8945.83 4126.46 8914.97 4131.16 8883.25 4131.06 8852.33 4126.66 8838.28 4124.56 8819.42 4117.05 8821.37 4099.64 8821.07 3927.68 8821.57 3755.72 8821.12 3583.81 8819.37 3522.92 8810.96 3457.07 8770.79 3408.49 8738.82 3369.17 8684.7 3353.96 8635.67 3361.01 8589.09 3368.22 8550.22 3397.73 8516.71 3429.11 8487.19 3457.72 8457.88 3487.39 8434.06 3520.87 8433.46 3713.64 8434.01 3906.42 8433.76 4099.24 8435.96 4115.6 8418.95 4123.76 8405.55 4126.11 8373.63 4131.31 8340.71 4131.26 8308.85 4126.16 8295.54 4124.11 8279.18 4116 8281.28 4099.94 8281.13 3961.35 8281.23 3822.71 8281.18 3684.12 8280.13 3620.43 8285.93 3555.59 8269.62 3493.3 8258.62 3450.07 8237.26 3406.34 8198.54 3381.62 8148.71 3350.05 8081.33 3353.06 8032.15 3384.63 7977.02 3419.5 7933.45 3469.43 7892.78 3519.71 7892.93 3712.94 7892.83 3906.22 7892.78 4099.44 7894.83 4117.3 7875.12 4125.16 7860.71 4127.01 7829.59 4131.06 7797.67 4131.26 7766.76 4125.96 7753.6 4123.71 7737.84 4115.25 7740.24 4099.49 7740.29 3822.46 7740.09 3545.38 7740.34 3268.35 7738.79 3250.94 7757.75 3243.58 7771.91 3241.93 7797.43 3239.33 7823.39 3239.23 7848.9 3242.23 7862.46 3243.88 7878.87 3252.69 7877.92 3268.55 7878.37 3305.17 7878.07 3341.85 7878.17 3378.52 7924.14 3327.84 7975.77 3279.86 8038.9 3251.54Z" fill-rule="evenodd"/><path d="M9953.02 3255.45C10008.4 3220 10079.6 3222.65 10140.2 3242.15 10154 3246.2 10169.6 3254.35 10171.3 3270.34 10175.3 3301.53 10174.2 3333.28 10172.3 3364.62 10171.3 3378.21 10165.2 3399.31 10147.3 3396.01 10114.3 3386.91 10082.1 3372.32 10047.2 3372.21 10010.5 3370.32 9976.25 3388.36 9949.77 3412.45 9904.98 3452.69 9872.6 3504.18 9839.81 3554.12 9839.81 3735.87 9839.87 3917.67 9839.77 4099.48 9841.77 4115.67 9824.85 4124.17 9811.34 4126.37 9780.41 4131.22 9748.63 4131.07 9717.7 4126.77 9703.53 4124.82 9684.77 4117.17 9687.22 4099.73 9687.17 3822.9 9687.02 3546.07 9687.27 3269.24 9685.67 3252.45 9703.73 3244.6 9717.65 3242.9 9743.62 3240.05 9770.05 3240 9796.02 3243.05 9809.79 3244.7 9826 3253.9 9824.95 3269.74 9825.2 3309.98 9825 3350.27 9825 3390.56 9860.39 3339.52 9900.17 3289.44 9953.02 3255.45Z" fill-rule="evenodd"/><rect x="3411" y="2619" width="1759" height="1759" stroke="#000000" stroke-width="45.8333" stroke-miterlimit="8" fill="none"/></g></svg>