<svg width="2674" height="808" xmlns="http://www.w3.org/2000/svg" xmlns:xlink="http://www.w3.org/1999/xlink" xml:space="preserve" overflow="hidden"><g transform="translate(-214 -58)"><path d="M237 462C237 251.58 407.803 81.0001 618.5 81.0001 829.197 81.0001 1000 251.58 1000 462 1000 672.42 829.197 843 618.5 843 407.803 843 237 672.42 237 462Z" stroke="#000000" stroke-width="45.8333" stroke-miterlimit="8" fill="#FFFFFF" fill-rule="evenodd" fill-opacity="0"/><g><g><g><path d="M475.725 248 761.275 248C773.859 247.974 786.417 251.324 797.289 257.659 807.048 263.262 815.389 271.287 821.534 280.703 828.736 291.892 832.848 305.074 833 318.404L833 606.596C832.788 624.549 825.447 642.312 812.889 655.138 799.924 668.745 781.364 676.792 762.57 677L474.443 677C462.383 676.861 450.414 673.503 439.967 667.505 430.035 661.825 421.515 653.678 415.332 644.058 408.121 632.809 404.126 619.544 404 606.176L404 318.547C404.217 310.707 405.434 302.825 408.238 295.476 412.667 282.797 420.909 271.543 431.452 263.253 443.958 253.417 459.805 247.939 475.725 248M480.483 320.8C480.492 349.543 480.899 378.273 480.808 407.02 481.029 418.711 480.869 430.416 480.917 442.116 480.917 456.42 480.917 470.72 480.917 485.024 480.873 491.377 481.029 497.734 480.804 504.083 480.817 517.078 480.804 530.078 480.808 543.078 480.86 554.648 480.618 566.21 480.7 577.78 480.618 587.53 480.878 597.288 480.54 607.034 489.544 607.03 498.54 606.835 507.545 606.908 520.263 606.99 532.969 606.731 545.687 606.8 556.351 606.752 567.02 606.899 577.68 606.726 594.615 606.644 611.549 606.713 628.48 606.692 645.085 606.709 661.69 606.622 678.291 606.8 704.443 606.765 730.582 607.038 756.729 607.125 756.408 571.635 756.543 536.132 756.517 500.633 756.443 481.809 756.699 462.994 756.625 444.17 749.215 444.257 741.809 444.387 734.399 444.478 715.653 444.646 696.916 444.326 678.17 444.404 678.733 472.679 678.092 500.975 678.638 529.25 654.692 528.778 630.733 528.692 606.778 528.687 599.425 528.986 592.062 528.614 584.713 528.912 576.003 528.921 567.302 529.211 558.592 529.233 558.639 517.382 558.899 505.539 559.025 493.691 558.969 478.087 559.324 462.487 559.025 446.887 559.12 430.962 558.713 415.05 558.6 399.133 567.154 399.233 575.708 399.458 584.267 399.445 591.629 399.745 599.009 399.372 606.371 399.671 612.576 399.61 618.782 399.788 624.983 399.554 656.33 399.562 687.677 399.554 719.025 399.558 731.691 399.632 744.353 399.866 757.015 400 756.153 373.615 756.287 347.181 756.967 320.787 752.851 320.561 748.717 320.757 744.596 320.687 737.532 320.982 730.456 320.618 723.393 320.913 712.152 320.882 700.911 321.008 689.671 321.09 667.813 321.181 645.956 321.086 624.099 321.138 620.645 321.298 617.178 321.276 613.72 321.125 595.234 321.125 576.748 321.125 558.262 321.125 545.847 320.83 533.419 321.198 521.009 320.908 507.497 320.991 493.995 320.778 480.483 320.8Z"/></g></g></g><path d="M2521.01 221C2548.99 221.06 2576.98 221 2604.98 221.02 2605 379.332 2604.94 537.645 2605 695.957 2577 696.037 2548.99 695.977 2521.01 695.997 2521.01 537.665 2520.99 379.332 2521.01 221Z" fill-rule="evenodd"/><path d="M1330.35 250.2C1389.97 242.755 1451.02 248.523 1508.66 265.209 1506.98 290.138 1504.78 315.047 1503.11 339.996 1473.99 326.664 1442.17 320.017 1410.38 317.382 1377.29 314.788 1342.79 317.602 1312.42 331.853 1278.92 347.302 1253.16 377.16 1240.26 411.431 1228.54 443.006 1226.82 477.735 1232.09 510.808 1238.14 548.551 1258.39 584.358 1289.43 607.051 1312.7 624.276 1341.72 632.34 1370.41 633.398 1392.8 634.076 1415.39 632.599 1437.18 627.27 1437.2 588.968 1437.18 550.666 1437.18 512.385 1405.98 512.365 1374.77 512.385 1343.57 512.365 1343.55 489.172 1343.57 465.979 1343.57 442.787 1403.05 442.747 1462.52 442.807 1522 442.767 1521.94 521.985 1522 601.203 1521.94 680.422 1475.71 692.417 1428.55 702.936 1380.56 702.996 1339.5 703.175 1297.82 697.886 1259.63 682.178 1218.85 665.512 1182.94 635.533 1162.47 596.233 1138.2 551.086 1134.05 498.054 1138.64 447.836 1143.1 400.533 1159.73 353.07 1192.47 317.821 1227.78 278.761 1278.7 256.706 1330.35 250.2Z" fill-rule="evenodd"/><path d="M1621.35 386.669C1672.12 364.5 1729.58 355.904 1784.23 366.538 1810.1 371.556 1836.06 383.57 1851.5 405.76 1870.49 432.907 1874.73 467.19 1874.89 499.535 1874.89 564.844 1874.77 630.273 1880 695.401 1855.09 695.442 1830.19 695.401 1805.28 695.421 1802.63 678.989 1802.67 662.337 1801.25 645.805 1790.84 663.796 1775.7 679.049 1757.07 688.425 1725.77 705.557 1687.38 707.156 1653.97 695.481 1630.16 686.686 1607.43 671.113 1595.53 648.084 1584.26 626.434 1584.22 600.727 1589.06 577.318 1594.39 551.93 1611.8 530.08 1634.09 517.286 1660.1 502.074 1690.52 497.396 1720.14 495.317 1745.98 493.538 1771.91 494.357 1797.79 494.138 1797.53 476.626 1795.49 457.515 1783.91 443.522 1772.01 429.888 1753.13 425.67 1735.84 424.431 1695.73 421.212 1655.66 435.705 1623.85 459.654 1622.93 435.326 1622.33 410.997 1621.35 386.669M1725.23 547.192C1707.95 549.951 1689.94 555.808 1678.07 569.402 1668.11 579.917 1665.47 595.489 1667.67 609.402 1669.19 619.478 1675.82 628.333 1684.79 633.031 1699.62 641.007 1717.24 642.187 1733.7 640.068 1752.71 637.549 1770.19 626.494 1780.95 610.642 1794.96 591.891 1797.55 567.582 1797.73 544.873 1773.56 545.013 1749.26 543.814 1725.23 547.192Z" fill-rule="evenodd"/><path d="M2059.58 389.291C2084.78 367.587 2119.62 358.517 2152.32 363.203 2175.65 365.845 2198.7 376.157 2213.9 394.577 2220.35 402.025 2225.21 410.695 2229.64 419.464 2245.95 385.887 2282.21 366.226 2318.25 362.722 2343.89 360.48 2371.48 363.723 2393.04 378.94 2411.43 391.534 2422.26 412.437 2427.72 433.64 2435.31 463.733 2433.72 495.028 2433.9 525.781 2433.94 582.524 2434.02 639.246 2434 695.989 2405.77 695.969 2377.54 696.029 2349.31 695.949 2349.41 631.878 2349.33 567.788 2349.35 503.717 2349.07 486.718 2349.95 468.999 2343.41 452.961 2338.81 440.868 2327.65 431.798 2315.06 429.375 2301.2 426.612 2285.96 427.473 2273.56 434.781 2262.09 441.949 2253.42 453.222 2248.62 465.855 2239.72 487.98 2238.12 512.187 2237.78 535.812 2237.76 589.211 2237.86 642.59 2237.9 695.989 2209.69 696.009 2181.46 695.989 2153.25 695.989 2153.25 632.599 2153.21 569.209 2153.29 505.819 2152.92 488.26 2154.13 469.94 2147.46 453.302 2142.97 441.248 2132 432.038 2119.49 429.516 2102.63 425.831 2083.25 428.114 2070.12 440.207 2056.79 451.66 2050.26 468.759 2046.43 485.497 2042.27 504.638 2041.69 524.34 2041.63 543.861 2041.71 594.557 2041.69 645.273 2041.69 695.989 2013.46 695.969 1985.23 696.049 1957 695.949 1957.04 587.189 1957.02 478.429 1957 369.67 1983.34 369.57 2009.67 369.629 2036.03 369.629 2036.13 385.127 2035.81 400.624 2036.21 416.121 2043.46 406.73 2050.4 396.92 2059.58 389.291Z" fill-rule="evenodd"/><path d="M2829.73 369.361C2847.7 360.471 2868.62 360.751 2887.9 364.355 2888.06 392.886 2887.9 421.436 2888 449.967 2871.66 443.019 2853.16 441.838 2835.75 444.481 2815.53 447.925 2800.45 464.683 2793.01 482.982 2781.73 511.853 2781.19 543.327 2780.95 573.899 2780.93 614.583 2780.91 655.247 2780.97 695.93 2752.65 696.07 2724.32 695.95 2696 695.99 2696 587.214 2696 478.417 2696 369.641 2721.16 369.621 2746.35 369.621 2771.53 369.641 2771.93 394.628 2770.71 419.694 2772.15 444.601 2778.17 412.387 2800.41 383.756 2829.73 369.361Z" fill-rule="evenodd"/></g></svg>