<svg width="6786" height="1805" xmlns="http://www.w3.org/2000/svg" xmlns:xlink="http://www.w3.org/1999/xlink" xml:space="preserve" overflow="hidden"><defs><clipPath id="clip0"><rect x="-4399" y="2596" width="6786" height="1805"/></clipPath><clipPath id="clip1"><rect x="-3992" y="3004" width="991" height="991"/></clipPath><clipPath id="clip2"><rect x="-3992" y="3004" width="991" height="991"/></clipPath><clipPath id="clip3"><rect x="-3992" y="3004" width="991" height="991"/></clipPath></defs><g clip-path="url(#clip0)" transform="translate(4399 -2596)"><g clip-path="url(#clip1)"><g clip-path="url(#clip2)"><g clip-path="url(#clip3)"><path d="M-3826.48 3004-3167.52 3004C-3138.48 3003.94-3109.5 3011.67-3084.41 3026.29-3061.89 3039.22-3042.64 3057.74-3028.46 3079.47-3011.84 3105.29-3002.35 3135.71-3002 3166.47L-3002 3831.53C-3002.49 3872.96-3019.43 3913.95-3048.41 3943.55-3078.33 3974.95-3121.16 3993.52-3164.53 3994L-3829.44 3994C-3857.27 3993.68-3884.89 3985.93-3909 3972.09-3931.92 3958.98-3951.58 3940.18-3965.85 3917.98-3982.49 3892.02-3991.71 3861.41-3992 3830.56L-3992 3166.8C-3991.5 3148.71-3988.69 3130.52-3982.22 3113.56-3972 3084.3-3952.98 3058.33-3928.65 3039.2-3899.79 3016.5-3863.22 3003.86-3826.48 3004M-3815.5 3172C-3815.48 3238.33-3814.54 3304.63-3814.75 3370.97-3814.24 3397.95-3814.61 3424.96-3814.5 3451.96-3814.5 3484.97-3814.5 3517.97-3814.5 3550.98-3814.6 3565.64-3814.24 3580.31-3814.76 3594.96-3814.73 3624.95-3814.76 3654.95-3814.75 3684.95-3814.63 3711.65-3815.19 3738.33-3815 3765.03-3815.19 3787.53-3814.59 3810.05-3815.37 3832.54-3794.59 3832.53-3773.83 3832.08-3753.05 3832.25-3723.7 3832.44-3694.38 3831.84-3665.03 3832-3640.42 3831.89-3615.8 3832.23-3591.2 3831.83-3552.12 3831.64-3513.04 3831.8-3473.97 3831.75-3435.65 3831.79-3397.33 3831.59-3359.02 3832-3298.67 3831.92-3238.35 3832.55-3178.01 3832.75-3178.75 3750.85-3178.44 3668.92-3178.5 3587-3178.67 3543.56-3178.08 3500.14-3178.25 3456.7-3195.35 3456.9-3212.44 3457.2-3229.54 3457.41-3272.8 3457.8-3316.04 3457.06-3359.3 3457.24-3358 3522.49-3359.48 3587.79-3358.22 3653.04-3413.48 3651.95-3468.77 3651.75-3524.05 3651.74-3541.02 3652.43-3558.01 3651.57-3574.97 3652.26-3595.07 3652.28-3615.15 3652.95-3635.25 3653-3635.14 3625.65-3634.54 3598.32-3634.25 3570.98-3634.38 3534.97-3633.56 3498.97-3634.25 3462.97-3634.03 3426.22-3634.97 3389.5-3635.23 3352.77-3615.49 3353-3595.75 3353.52-3576 3353.49-3559.01 3354.18-3541.98 3353.32-3524.99 3354.01-3510.67 3353.87-3496.35 3354.28-3482.04 3353.74-3409.7 3353.76-3337.36 3353.74-3265.02 3353.75-3235.79 3353.92-3206.57 3354.46-3177.35 3354.77-3179.34 3293.88-3179.03 3232.88-3177.46 3171.97-3186.96 3171.45-3196.5 3171.9-3206.01 3171.74-3222.31 3172.42-3238.64 3171.58-3254.94 3172.26-3280.88 3172.19-3306.82 3172.48-3332.76 3172.67-3383.2 3172.88-3433.64 3172.66-3484.08 3172.78-3492.05 3173.15-3500.05 3173.1-3508.03 3172.75-3550.69 3172.75-3593.35 3172.75-3636.01 3172.75-3664.66 3172.07-3693.34 3172.92-3721.98 3172.25-3753.16 3172.44-3784.32 3171.95-3815.5 3172Z" fill="#FFFFFF"/></g></g></g><path d="M1487.1 2841.54C1519.25 2834.14 1552.96 2835.14 1585.61 2838.84 1601.41 2840.19 1621.41 2849.79 1618.76 2868.75 1618.76 3278.98 1618.81 3689.27 1618.76 4099.5 1620.66 4116.06 1603.21 4124.41 1589.46 4126.46 1558.56 4131.16 1526.8 4131.16 1495.9 4126.56 1481.9 4124.61 1463.85 4116.61 1466.3 4099.5 1466.2 3689.12 1466.25 3278.78 1466.25 2868.45 1464.25 2855.1 1474.55 2844.09 1487.1 2841.54Z" fill="#FFFFFF" fill-rule="evenodd"/><path d="M-2019.85 3060.68C-1933 2980.1-1819.18 2930.82-1701.97 2916.56-1621.72 2906.86-1539.58 2909.41-1460.68 2927.67-1394.44 2942.68-1327.76 2963.34-1271.57 3002.76-1251.96 3014.96-1235.95 3034.67-1233.95 3058.38-1231.55 3088.4-1228.95 3120.86-1242.16 3148.82-1250.81 3164.98-1271.37 3159.88-1283.58 3151.08-1376.18 3089.6-1484.8 3047.93-1596.96 3047.18-1679.61 3044.18-1764.25 3061.48-1834.94 3105.6-1910.69 3151.28-1967.32 3224.66-1999.19 3306.6-2032.86 3391.09-2042.81 3483.48-2036.96 3573.83-2031.26 3673.02-2001.19 3772.82-1940.15 3852.31-1889.88 3918.54-1816.43 3965.76-1736.14 3986.57-1622.77 4016.04-1497.65 4004.18-1394.04 3948.65-1394.09 3832.45-1394.04 3716.24-1394.09 3600.04-1486.75 3599.99-1579.4 3600.09-1672.05 3599.79-1686.76 3600.54-1695.81 3586.43-1698.82 3573.83-1704.32 3550.12-1703.82 3525.25-1700.32 3501.29-1698.17 3486.74-1689.01 3468.63-1671.8 3469.73-1545.03 3469.53-1418.21 3469.58-1291.44 3469.68-1271.22 3469.53-1250.21 3480.38-1241.76 3499.29-1233.7 3516.4-1234.85 3535.76-1234.85 3554.17-1234.95 3699.19-1234.8 3844.21-1234.9 3989.22-1235.15 4009.48-1238.66 4031.99-1254.21 4046.5-1269.82 4060.96-1290.28 4068.36-1309.45 4076.92-1424.91 4125.94-1551.83 4148.3-1677.1 4138.9-1790.57 4131.69-1903.88 4095.88-1994.63 4026.09-2109.75 3938.6-2177.44 3800.13-2197.3 3658.87-2214.11 3536.71-2207.75 3409.7-2167.73 3292.49-2137.52 3205.15-2088.19 3123.46-2019.85 3060.68Z" fill="#FFFFFF" fill-rule="evenodd"/><path d="M-907.924 3288.35C-818.286 3243.39-716.335 3222.99-616.288 3229.04-537.961 3233.29-453.829 3252.59-397.923 3311.5-342.82 3369.2-328.856 3452.71-327.405 3529.56-327.004 3719.63-327.304 3909.69-327.254 4099.75-324.952 4114.7-338.665 4124.25-351.678 4126.6-378.054 4131.7-405.531 4131.25-431.957 4127.2-443.869 4125.3-459.133 4118.95-458.333 4104.45-459.133 4076.2-458.583 4047.9-458.733 4019.6-520.894 4085.45-604.776 4135-696.617 4141.1-769.988 4145.61-847.364 4133.7-909.575 4092.45-961.826 4058.25-997.111 4000.85-1006.82 3939.49-1018.03 3870.39-1007.72 3794.23-963.278 3738.08-915.781 3676.52-840.157 3645.07-766.084 3629.12-671.842 3608.02-574.847 3613.07-479.003 3612.47-479.654 3552.46-473.548 3488.91-500.324 3433.11-518.041 3394.9-555.678 3369.2-596.018 3359.8-675.846 3341.55-760.228 3354.8-834.351 3387.95-864.882 3400.7-893.259 3417.75-922.438 3433.06-935.601 3441.11-955.02 3438.91-961.876 3423.85-973.087 3401.25-970.585 3374.7-968.583 3350.35-965.08 3318.25-933.248 3302.15-907.924 3288.35M-815.583 3780.93C-853.72 3817.03-861.578 3875.09-849.416 3924.14-838.856 3966.94-803.921 4001.75-761.78 4014-715.385 4027.8-664.234 4025.65-619.09 4008.2-563.286 3985.54-519.043 3942.64-478.953 3898.99-478.953 3840.18-479.003 3781.38-479.053 3722.58-536.409 3723.23-593.816 3721.18-651.122 3723.83-709.179 3727.93-771.79 3739.58-815.583 3780.93Z" fill="#FFFFFF" fill-rule="evenodd"/><path d="M251.903 3251.54C326.593 3217.17 415.84 3220.17 490.629 3252.64 550.061 3278.56 593.734 3331.74 617.047 3391.28 670.474 3335.54 727.605 3280.01 799.443 3248.79 856.523 3223.12 921.908 3222.37 982.29 3235.63 1054.48 3251.79 1117.21 3303.02 1148.68 3369.87 1184.85 3445.57 1188.95 3531.52 1187.85 3614.03 1187.85 3775.83 1187.95 3937.64 1187.8 4099.44 1189.7 4115.9 1172.54 4124.36 1158.83 4126.46 1127.97 4131.16 1096.25 4131.06 1065.33 4126.66 1051.28 4124.56 1032.42 4117.05 1034.37 4099.64 1034.07 3927.68 1034.57 3755.72 1034.12 3583.81 1032.37 3522.92 1023.96 3457.07 983.791 3408.49 951.824 3369.17 897.695 3353.96 848.669 3361.01 802.094 3368.22 763.224 3397.73 729.706 3429.11 700.19 3457.72 670.875 3487.39 647.062 3520.87 646.462 3713.64 647.012 3906.42 646.762 4099.24 648.964 4115.6 631.954 4123.76 618.547 4126.11 586.63 4131.31 553.712 4131.26 521.846 4126.16 508.539 4124.11 492.18 4116 494.281 4099.94 494.131 3961.35 494.231 3822.71 494.182 3684.12 493.131 3620.43 498.934 3555.59 482.625 3493.3 471.619 3450.07 450.258 3406.34 411.537 3381.62 361.711 3350.05 294.325 3353.06 245.149 3384.63 190.02 3419.5 146.447 3469.43 105.776 3519.71 105.925 3712.94 105.825 3906.22 105.776 4099.44 107.826 4117.3 88.1156 4125.16 73.7081 4127.01 42.5917 4131.06 10.6747 4131.26-20.2415 4125.96-33.3984 4123.71-49.1569 4115.25-46.7557 4099.49-46.7057 3822.46-46.906 3545.38-46.6558 3268.35-48.2065 3250.94-29.2462 3243.58-15.0889 3241.93 10.425 3239.33 36.3883 3239.23 61.9021 3242.23 75.4591 3243.88 91.8679 3252.69 90.9175 3268.55 91.3674 3305.17 91.0673 3341.85 91.1677 3378.52 137.142 3327.84 188.769 3279.86 251.903 3251.54Z" fill="#FFFFFF" fill-rule="evenodd"/><path d="M2166.02 3255.45C2221.43 3220 2292.6 3222.65 2353.2 3242.15 2367.02 3246.2 2382.58 3254.35 2384.29 3270.34 2388.29 3301.53 2387.19 3333.28 2385.29 3364.62 2384.34 3378.21 2378.18 3399.31 2360.31 3396.01 2327.33 3386.91 2295.1 3372.32 2260.22 3372.21 2223.53 3370.32 2189.25 3388.36 2162.77 3412.45 2117.98 3452.69 2085.6 3504.18 2052.81 3554.12 2052.81 3735.87 2052.87 3917.67 2052.77 4099.48 2054.77 4115.67 2037.85 4124.17 2024.34 4126.37 1993.41 4131.22 1961.63 4131.07 1930.7 4126.77 1916.53 4124.82 1897.77 4117.17 1900.22 4099.73 1900.17 3822.9 1900.02 3546.07 1900.27 3269.24 1898.67 3252.45 1916.73 3244.6 1930.65 3242.9 1956.62 3240.05 1983.05 3240 2009.02 3243.05 2022.79 3244.7 2039 3253.9 2037.95 3269.74 2038.2 3309.98 2038 3350.27 2038 3390.56 2073.39 3339.52 2113.17 3289.44 2166.02 3255.45Z" fill="#FFFFFF" fill-rule="evenodd"/><rect x="-4376" y="2619" width="1759" height="1759" stroke="#FFFFFF" stroke-width="45.8333" stroke-miterlimit="8" fill="none"/></g></svg>