<?xml version="1.0" encoding="UTF-8" ?>
<!DOCTYPE svg PUBLIC "-//W3C//DTD SVG 1.1//EN" "http://www.w3.org/Graphics/SVG/1.1/DTD/svg11.dtd">
<svg width="1276pt" height="665pt" viewBox="0 0 1276 665" version="1.1" xmlns="http://www.w3.org/2000/svg">
<g id="#63379dff">
<path fill="#63379d" opacity="1.00" d=" M 898.12 157.55 C 912.27 157.58 926.42 157.55 940.58 157.56 C 940.59 236.70 940.56 315.84 940.59 394.98 C 926.43 395.02 912.27 394.99 898.12 395.00 C 898.12 315.85 898.11 236.70 898.12 157.55 Z" />
<path fill="#63379d" opacity="1.00" d=" M 301.88 171.90 C 331.73 168.17 362.30 171.06 391.16 179.42 C 390.32 191.91 389.22 204.39 388.38 216.89 C 373.80 210.21 357.87 206.88 341.95 205.56 C 325.38 204.26 308.11 205.67 292.90 212.81 C 276.13 220.55 263.23 235.51 256.77 252.68 C 250.90 268.50 250.04 285.90 252.68 302.47 C 255.71 321.38 265.85 339.32 281.39 350.69 C 293.04 359.32 307.57 363.36 321.94 363.89 C 333.15 364.23 344.46 363.49 355.37 360.82 C 355.38 341.63 355.37 322.44 355.37 303.26 C 339.75 303.25 324.12 303.26 308.50 303.25 C 308.49 291.63 308.50 280.01 308.50 268.39 C 338.28 268.37 368.06 268.40 397.84 268.38 C 397.81 308.07 397.84 347.76 397.81 387.45 C 374.66 393.46 351.05 398.73 327.02 398.76 C 306.46 398.85 285.59 396.20 266.47 388.33 C 246.05 379.98 228.07 364.96 217.82 345.27 C 205.67 322.65 203.59 296.08 205.89 270.92 C 208.12 247.22 216.45 223.44 232.84 205.78 C 250.52 186.21 276.02 175.16 301.88 171.90 Z" />
<path fill="#63379d" opacity="1.00" d=" M 447.57 240.55 C 472.99 229.46 501.76 225.16 529.12 230.48 C 542.07 232.99 555.07 239.00 562.80 250.10 C 572.31 263.68 574.43 280.83 574.51 297.01 C 574.51 329.68 574.45 362.41 577.07 394.99 C 564.60 395.01 552.13 394.99 539.66 395.00 C 538.33 386.78 538.35 378.45 537.64 370.18 C 532.43 379.18 524.85 386.81 515.52 391.50 C 499.85 400.07 480.63 400.87 463.90 395.03 C 451.98 390.63 440.60 382.84 434.64 371.32 C 429.00 360.49 428.98 347.63 431.40 335.92 C 434.07 323.22 442.79 312.29 453.95 305.89 C 466.97 298.28 482.20 295.94 497.03 294.90 C 509.97 294.01 522.95 294.42 535.91 294.31 C 535.78 285.55 534.76 275.99 528.96 268.99 C 523.00 262.17 513.55 260.06 504.89 259.44 C 484.81 257.83 464.75 265.08 448.82 277.06 C 448.36 264.89 448.06 252.72 447.57 240.55 M 499.58 320.85 C 490.93 322.23 481.91 325.16 475.97 331.96 C 470.98 337.22 469.66 345.01 470.76 351.97 C 471.52 357.01 474.84 361.44 479.33 363.79 C 486.76 367.78 495.58 368.37 503.82 367.31 C 513.34 366.05 522.09 360.52 527.48 352.59 C 534.49 343.21 535.79 331.05 535.88 319.69 C 523.78 319.76 511.61 319.16 499.58 320.85 Z" />
<path fill="#63379d" opacity="1.00" d=" M 666.98 241.82 C 679.63 230.98 697.12 226.45 713.53 228.79 C 725.24 230.11 736.81 235.26 744.44 244.46 C 747.68 248.18 750.12 252.51 752.34 256.89 C 760.53 240.12 778.73 230.30 796.82 228.55 C 809.69 227.43 823.54 229.05 834.36 236.65 C 843.59 242.94 849.03 253.38 851.77 263.97 C 855.58 279.00 854.78 294.63 854.87 309.99 C 854.89 338.33 854.93 366.66 854.92 395.00 C 840.75 394.99 826.58 395.02 812.41 394.98 C 812.46 362.98 812.42 330.97 812.43 298.97 C 812.29 290.48 812.73 281.63 809.45 273.62 C 807.14 267.58 801.54 263.05 795.22 261.84 C 788.26 260.46 780.61 260.89 774.39 264.54 C 768.63 268.12 764.28 273.75 761.87 280.06 C 757.40 291.11 756.60 303.20 756.43 315.00 C 756.42 341.67 756.47 368.33 756.49 395.00 C 742.33 395.01 728.16 395.00 714.00 395.00 C 714.00 363.34 713.98 331.68 714.02 300.02 C 713.83 291.25 714.44 282.10 711.09 273.79 C 708.84 267.77 703.33 263.17 697.05 261.91 C 688.59 260.07 678.86 261.21 672.27 267.25 C 665.58 272.97 662.30 281.51 660.38 289.87 C 658.29 299.43 658.00 309.27 657.97 319.02 C 658.01 344.34 658.00 369.67 658.00 395.00 C 643.83 394.99 629.66 395.03 615.49 394.98 C 615.51 340.66 615.50 286.34 615.49 232.02 C 628.71 231.97 641.93 232.00 655.16 232.00 C 655.21 239.74 655.05 247.48 655.25 255.22 C 658.89 250.53 662.37 245.63 666.98 241.82 Z" />
<path fill="#63379d" opacity="1.00" d=" M 1052.91 231.86 C 1061.89 227.42 1072.35 227.56 1081.99 229.36 C 1082.07 243.61 1081.99 257.87 1082.04 272.12 C 1073.87 268.65 1064.62 268.06 1055.92 269.38 C 1045.81 271.10 1038.27 279.47 1034.55 288.61 C 1028.91 303.03 1028.64 318.75 1028.52 334.02 C 1028.51 354.34 1028.50 374.65 1028.53 394.97 C 1014.37 395.04 1000.21 394.98 986.05 395.00 C 986.05 340.67 986.05 286.33 986.05 232.00 C 998.63 231.99 1011.22 231.99 1023.81 232.00 C 1024.01 244.48 1023.40 257.00 1024.12 269.44 C 1027.13 253.35 1038.25 239.05 1052.91 231.86 Z" />
</g>
</svg>
