<svg width="1759" height="1759" xmlns="http://www.w3.org/2000/svg" xmlns:xlink="http://www.w3.org/1999/xlink" xml:space="preserve" overflow="hidden"><defs><clipPath id="clip0"><rect x="2294" y="449" width="1759" height="1759"/></clipPath><radialGradient cx="0" cy="4874030" r="6892918" fy="4874029" gradientUnits="userSpaceOnUse" spreadMethod="pad" id="fill1" gradientTransform="matrix(0.000360892 0 0 0.000360892 2294 449)"><stop offset="0" stop-color="#63379D"/><stop offset="0.62" stop-color="#63379D"/><stop offset="0.81" stop-color="#8252C2"/><stop offset="1" stop-color="#8252C2"/></radialGradient></defs><g clip-path="url(#clip0)" transform="translate(-2294 -449)"><rect x="2294" y="449" width="1759" height="1759" fill="url(#fill1)"/><g><g><g><path d="M2843.52 834 3502.48 834C3531.52 833.94 3560.5 841.67 3585.59 856.29 3608.11 869.22 3627.36 887.74 3641.54 909.47 3658.16 935.29 3667.65 965.71 3668 996.47L3668 1661.53C3667.51 1702.96 3650.57 1743.95 3621.59 1773.55 3591.67 1804.95 3548.84 1823.52 3505.47 1824L2840.56 1824C2812.73 1823.68 2785.11 1815.93 2761 1802.09 2738.08 1788.98 2718.42 1770.18 2704.15 1747.98 2687.51 1722.02 2678.29 1691.41 2678 1660.56L2678 996.8C2678.5 978.71 2681.31 960.52 2687.78 943.56 2698 914.3 2717.02 888.33 2741.35 869.2 2770.21 846.5 2806.78 833.86 2843.52 834M2854.5 1002C2854.52 1068.33 2855.46 1134.63 2855.25 1200.97 2855.76 1227.95 2855.39 1254.96 2855.5 1281.96 2855.5 1314.97 2855.5 1347.97 2855.5 1380.98 2855.4 1395.64 2855.76 1410.31 2855.24 1424.96 2855.27 1454.95 2855.24 1484.95 2855.25 1514.95 2855.37 1541.65 2854.81 1568.33 2855 1595.03 2854.81 1617.53 2855.41 1640.05 2854.63 1662.54 2875.41 1662.53 2896.17 1662.08 2916.95 1662.25 2946.3 1662.44 2975.62 1661.84 3004.97 1662 3029.58 1661.89 3054.2 1662.23 3078.8 1661.83 3117.88 1661.64 3156.96 1661.8 3196.03 1661.75 3234.35 1661.79 3272.67 1661.59 3310.98 1662 3371.33 1661.92 3431.65 1662.55 3491.99 1662.75 3491.25 1580.85 3491.56 1498.92 3491.5 1417 3491.33 1373.56 3491.92 1330.14 3491.75 1286.7 3474.65 1286.9 3457.56 1287.2 3440.46 1287.41 3397.2 1287.8 3353.96 1287.06 3310.7 1287.24 3312 1352.49 3310.52 1417.79 3311.78 1483.04 3256.52 1481.95 3201.23 1481.75 3145.95 1481.74 3128.98 1482.43 3111.99 1481.57 3095.03 1482.26 3074.93 1482.28 3054.85 1482.95 3034.75 1483 3034.86 1455.65 3035.46 1428.32 3035.75 1400.98 3035.62 1364.97 3036.44 1328.97 3035.75 1292.97 3035.97 1256.22 3035.03 1219.5 3034.77 1182.77 3054.51 1183 3074.25 1183.52 3094 1183.49 3110.99 1184.18 3128.02 1183.32 3145.01 1184.01 3159.33 1183.87 3173.65 1184.28 3187.96 1183.74 3260.3 1183.76 3332.64 1183.74 3404.98 1183.75 3434.21 1183.92 3463.43 1184.46 3492.65 1184.77 3490.66 1123.88 3490.97 1062.88 3492.54 1001.97 3483.04 1001.45 3473.5 1001.9 3463.99 1001.74 3447.69 1002.42 3431.36 1001.58 3415.06 1002.26 3389.12 1002.19 3363.18 1002.48 3337.24 1002.67 3286.8 1002.88 3236.36 1002.66 3185.92 1002.78 3177.95 1003.15 3169.95 1003.1 3161.97 1002.75 3119.31 1002.75 3076.65 1002.75 3033.99 1002.75 3005.34 1002.07 2976.66 1002.92 2948.02 1002.25 2916.84 1002.44 2885.68 1001.95 2854.5 1002Z" fill="#FFFFFF"/></g></g></g></g></svg>