<svg width="635" height="155" xmlns="http://www.w3.org/2000/svg" xmlns:xlink="http://www.w3.org/1999/xlink" xml:space="preserve" overflow="hidden"><defs><clipPath id="clip0"><rect x="2003" y="1483" width="635" height="155"/></clipPath><radialGradient cx="0.03125" cy="385156" r="544694" fx="0" fy="385156" gradientUnits="userSpaceOnUse" spreadMethod="pad" id="fill1" gradientTransform="matrix(0.000360892 0 0 0.000360892 2005.5 1491.5)"><stop offset="0" stop-color="#63379D"/><stop offset="0.62" stop-color="#63379D"/><stop offset="0.81" stop-color="#8252C2"/><stop offset="1" stop-color="#8252C2"/></radialGradient></defs><g clip-path="url(#clip0)" transform="translate(-2003 -1483)"><path d="M2188.04 1483 2259.35 1483C2259.17 1495.49 2275.94 1494.67 2277.31 1483L2349.95 1483C2352 1495.04 2366.72 1495.26 2368.54 1483L2441.37 1483C2443.33 1495.08 2458.04 1495.17 2459.96 1483L2532.74 1483C2534.79 1495.08 2549.37 1495.17 2551.38 1483L2624.93 1483C2624.93 1490.02 2632.11 1494.35 2638 1496.45L2638 1625.01C2631.7 1625.46 2625.21 1631.57 2625.12 1638L2551.42 1638C2549.32 1625.87 2534.79 1625.92 2532.69 1638L2460.01 1638C2457.95 1625.83 2443.42 1625.92 2441.32 1638L2368.63 1638C2366.58 1625.87 2352.05 1625.92 2349.95 1638L2277.31 1638C2275.98 1626.33 2259.03 1625.51 2259.49 1638L2188.04 1638C2182.55 1632.99 2177.48 1627.51 2172 1622.5 2172 1581.11 2172.05 1539.76 2172 1498.36 2177.35 1493.26 2182.55 1487.97 2188.04 1483M2180.95 1494.76C2181.37 1536.43 2181 1578.1 2181.14 1619.76 2208.55 1619.76 2235.96 1619.76 2263.37 1619.76 2263.37 1593.92 2263.37 1568.11 2263.37 1542.26 2255.74 1542.26 2248.16 1542.26 2240.53 1542.26 2240.53 1559 2240.53 1575.68 2240.53 1592.41 2229.88 1592.41 2219.19 1592.41 2208.55 1592.41 2208.55 1568.11 2208.55 1543.77 2208.55 1519.47 2226.82 1519.47 2245.1 1519.47 2263.37 1519.47 2263.37 1510.35 2263.37 1501.23 2263.42 1492.16 2236.05 1493.71 2207.73 1488.74 2180.95 1494.76M2272.56 1492.07C2272.46 1534.65 2272.56 1577.19 2272.51 1619.76 2281.65 1619.76 2290.78 1619.76 2299.92 1619.76 2299.92 1601.53 2299.92 1583.29 2299.92 1565.06 2310.57 1565.06 2321.26 1565.06 2331.9 1565.06 2331.9 1583.29 2331.9 1601.53 2331.9 1619.76 2339.53 1619.76 2347.12 1619.76 2354.75 1619.76 2354.75 1577.23 2354.75 1534.65 2354.75 1492.12 2327.33 1492.12 2299.97 1492.16 2272.56 1492.07M2363.88 1492.12C2363.88 1534.65 2363.88 1577.23 2363.88 1619.76 2373.02 1619.76 2382.16 1619.76 2391.29 1619.76 2391.29 1586.35 2391.29 1552.89 2391.29 1519.47 2393.58 1519.47 2398.15 1519.47 2400.43 1519.47 2400.43 1527.08 2400.43 1534.65 2400.43 1542.26 2403.86 1542.26 2410.71 1542.26 2414.14 1542.26 2414.14 1534.65 2414.14 1527.08 2414.14 1519.47 2416.42 1519.47 2420.99 1519.47 2423.27 1519.47 2423.27 1552.89 2423.27 1586.35 2423.27 1619.76 2430.86 1619.76 2438.49 1619.76 2446.12 1619.76 2446.12 1577.23 2446.12 1534.65 2446.12 1492.12 2418.71 1492.12 2391.29 1492.12 2363.88 1492.12M2455.3 1492.03C2455.21 1534.61 2455.3 1577.19 2455.26 1619.76 2482.67 1619.76 2510.08 1619.76 2537.49 1619.76 2537.49 1612.15 2537.49 1604.58 2537.49 1596.97 2519.22 1596.97 2500.94 1596.97 2482.67 1596.97 2482.67 1562.05 2482.67 1527.08 2482.67 1492.16 2473.53 1492.12 2464.44 1492.12 2455.3 1492.03M2546.58 1492.16C2546.67 1534.7 2546.58 1577.23 2546.63 1619.76 2555.76 1619.76 2564.9 1619.76 2574.04 1619.76 2574.09 1605.63 2573.95 1591.45 2574.09 1577.32 2589.21 1590.41 2602.36 1605.59 2617.03 1619.22 2620.05 1619.45 2626.08 1619.99 2629.09 1620.22 2629.09 1614.61 2628.86 1609.01 2628.45 1603.44 2616.16 1590.41 2602.55 1578.64 2590.85 1565.1 2603.51 1564.97 2616.16 1565.06 2628.86 1565.06 2628.86 1540.76 2628.86 1516.42 2628.86 1492.12 2601.45 1492.16 2573.99 1492.07 2546.58 1492.16Z" fill="#FFFFFF" fill-rule="evenodd"/><path d="M2300 1520C2310.65 1520 2321.35 1520 2332 1520 2332 1527.35 2332 1534.65 2332 1542 2321.35 1542 2310.65 1542 2300 1542 2300 1534.65 2300 1527.35 2300 1520Z" fill="#FFFFFF" fill-rule="evenodd"/><path d="M2574 1520C2584.65 1520 2595.35 1520 2606 1520 2606 1527.35 2606 1534.65 2606 1542 2595.35 1542 2584.65 1542 2574 1542 2574 1534.65 2574 1527.35 2574 1520Z" fill="#FFFFFF" fill-rule="evenodd"/><rect x="2005.5" y="1491.5" width="139" height="139" stroke="#FFFFFF" stroke-width="4.58333" stroke-miterlimit="8" fill="url(#fill1)"/><g><g><g><path d="M2048.04 1522 2099.96 1522C2102.25 1522 2104.53 1522.6 2106.51 1523.76 2108.28 1524.78 2109.8 1526.23 2110.92 1527.95 2112.22 1529.98 2112.97 1532.38 2113 1534.8L2113 1587.2C2112.96 1590.46 2111.63 1593.69 2109.34 1596.03 2106.99 1598.5 2103.61 1599.96 2100.19 1600L2047.81 1600C2045.62 1599.97 2043.44 1599.36 2041.54 1598.27 2039.73 1597.24 2038.18 1595.76 2037.06 1594.01 2035.75 1591.97 2035.02 1589.55 2035 1587.12L2035 1534.83C2035.04 1533.4 2035.26 1531.97 2035.77 1530.63 2036.58 1528.33 2038.07 1526.28 2039.99 1524.77 2042.27 1522.98 2045.15 1521.99 2048.04 1522M2048.91 1535.24C2048.91 1540.46 2048.98 1545.69 2048.97 1550.91 2049.01 1553.04 2048.98 1555.17 2048.98 1557.29 2048.98 1559.89 2048.98 1562.49 2048.98 1565.1 2048.98 1566.25 2049.01 1567.41 2048.96 1568.56 2048.97 1570.92 2048.96 1573.29 2048.97 1575.65 2048.97 1577.75 2048.93 1579.86 2048.95 1581.96 2048.93 1583.73 2048.98 1585.51 2048.92 1587.28 2050.55 1587.28 2052.19 1587.24 2053.83 1587.26 2056.14 1587.27 2058.45 1587.22 2060.76 1587.24 2062.7 1587.23 2064.64 1587.25 2066.58 1587.22 2069.66 1587.21 2072.74 1587.22 2075.81 1587.22 2078.83 1587.22 2081.85 1587.2 2084.87 1587.24 2089.63 1587.23 2094.38 1587.28 2099.13 1587.3 2099.07 1580.84 2099.1 1574.39 2099.09 1567.93 2099.08 1564.51 2099.13 1561.09 2099.11 1557.67 2097.77 1557.68 2096.42 1557.71 2095.07 1557.72 2091.66 1557.75 2088.26 1557.7 2084.85 1557.71 2084.95 1562.85 2084.83 1568 2084.93 1573.14 2080.58 1573.05 2076.22 1573.04 2071.87 1573.03 2070.53 1573.09 2069.19 1573.02 2067.86 1573.08 2066.27 1573.08 2064.69 1573.13 2063.11 1573.13 2063.12 1570.98 2063.16 1568.83 2063.19 1566.67 2063.18 1563.83 2063.24 1561 2063.19 1558.16 2063.2 1555.27 2063.13 1552.37 2063.11 1549.48 2064.66 1549.5 2066.22 1549.54 2067.78 1549.54 2069.11 1549.59 2070.46 1549.52 2071.79 1549.58 2072.92 1549.57 2074.05 1549.6 2075.18 1549.56 2080.88 1549.56 2086.58 1549.56 2092.28 1549.56 2094.58 1549.57 2096.88 1549.61 2099.18 1549.64 2099.03 1544.84 2099.05 1540.03 2099.18 1535.23 2098.43 1535.19 2097.68 1535.23 2096.93 1535.22 2095.64 1535.27 2094.36 1535.2 2093.07 1535.26 2091.03 1535.25 2088.98 1535.27 2086.94 1535.29 2082.97 1535.31 2078.99 1535.29 2075.02 1535.3 2074.39 1535.33 2073.76 1535.32 2073.13 1535.3 2069.77 1535.3 2066.41 1535.3 2063.05 1535.3 2060.79 1535.24 2058.53 1535.31 2056.27 1535.26 2053.82 1535.27 2051.36 1535.23 2048.91 1535.24Z" fill="#FFFFFF"/></g></g></g></g></svg>